<svg width="137" height="22" viewBox="0 0 137 22" fill="none" xmlns="http://www.w3.org/2000/svg">
<path d="M-0.000187397 16.7998V-0.000196457H3.88781V13.6318H12.3118V16.7998H-0.000187397ZM20.3939 16.9918C19.0179 16.9918 17.7939 16.7038 16.7219 16.1278C15.6659 15.5518 14.8259 14.7678 14.2019 13.7758C13.5939 12.7678 13.2899 11.6238 13.2899 10.3438C13.2899 9.0478 13.5939 7.9038 14.2019 6.9118C14.8259 5.9038 15.6659 5.1198 16.7219 4.5598C17.7939 3.9838 19.0179 3.6958 20.3939 3.6958C21.7539 3.6958 22.9699 3.9838 24.0419 4.5598C25.1139 5.1198 25.9539 5.8958 26.5619 6.8878C27.1699 7.8798 27.4739 9.0318 27.4739 10.3438C27.4739 11.6238 27.1699 12.7678 26.5619 13.7758C25.9539 14.7678 25.1139 15.5518 24.0419 16.1278C22.9699 16.7038 21.7539 16.9918 20.3939 16.9918ZM20.3939 13.9198C21.0179 13.9198 21.5779 13.7758 22.0739 13.4878C22.5699 13.1998 22.9619 12.7918 23.2499 12.2638C23.5379 11.7198 23.6819 11.0798 23.6819 10.3438C23.6819 9.5918 23.5379 8.9518 23.2499 8.4238C22.9619 7.8958 22.5699 7.4878 22.0739 7.1998C21.5779 6.9118 21.0179 6.7678 20.3939 6.7678C19.7699 6.7678 19.2099 6.9118 18.7139 7.1998C18.2179 7.4878 17.8179 7.8958 17.5139 8.4238C17.2259 8.9518 17.0819 9.5918 17.0819 10.3438C17.0819 11.0798 17.2259 11.7198 17.5139 12.2638C17.8179 12.7918 18.2179 13.1998 18.7139 13.4878C19.2099 13.7758 19.7699 13.9198 20.3939 13.9198ZM36.1484 21.6478C34.9324 21.6478 33.7564 21.4958 32.6204 21.1918C31.5004 20.9038 30.5644 20.4638 29.8124 19.8718L31.3004 17.1838C31.8444 17.6318 32.5324 17.9838 33.3644 18.2398C34.2124 18.5118 35.0444 18.6478 35.8604 18.6478C37.1884 18.6478 38.1484 18.3518 38.7404 17.7598C39.3484 17.1678 39.6524 16.2878 39.6524 15.1198V13.1758L39.8924 9.9358L39.8444 6.6718V3.8878H43.3964V14.6398C43.3964 17.0398 42.7724 18.8078 41.5244 19.9438C40.2764 21.0798 38.4844 21.6478 36.1484 21.6478ZM35.5724 16.1758C34.3724 16.1758 33.2844 15.9198 32.3084 15.4078C31.3484 14.8798 30.5724 14.1518 29.9804 13.2238C29.4044 12.2798 29.1164 11.1838 29.1164 9.9358C29.1164 8.6718 29.4044 7.5758 29.9804 6.6478C30.5724 5.7038 31.3484 4.9758 32.3084 4.4638C33.2844 3.9518 34.3724 3.6958 35.5724 3.6958C36.6604 3.6958 37.6204 3.9198 38.4524 4.3678C39.2844 4.7998 39.9324 5.4798 40.3964 6.4078C40.8604 7.3198 41.0924 8.4958 41.0924 9.9358C41.0924 11.3598 40.8604 12.5358 40.3964 13.4638C39.9324 14.3758 39.2844 15.0558 38.4524 15.5038C37.6204 15.9518 36.6604 16.1758 35.5724 16.1758ZM36.3164 13.1038C36.9724 13.1038 37.5564 12.9758 38.0684 12.7198C38.5804 12.4478 38.9804 12.0718 39.2684 11.5918C39.5564 11.1118 39.7004 10.5598 39.7004 9.9358C39.7004 9.2958 39.5564 8.7438 39.2684 8.2798C38.9804 7.7998 38.5804 7.4318 38.0684 7.1758C37.5564 6.9038 36.9724 6.7678 36.3164 6.7678C35.6604 6.7678 35.0764 6.9038 34.5644 7.1758C34.0524 7.4318 33.6444 7.7998 33.3404 8.2798C33.0524 8.7438 32.9084 9.2958 32.9084 9.9358C32.9084 10.5598 33.0524 11.1118 33.3404 11.5918C33.6444 12.0718 34.0524 12.4478 34.5644 12.7198C35.0764 12.9758 35.6604 13.1038 36.3164 13.1038ZM53.1251 16.9918C51.7491 16.9918 50.5251 16.7038 49.4531 16.1278C48.3971 15.5518 47.5571 14.7678 46.9331 13.7758C46.3251 12.7678 46.0211 11.6238 46.0211 10.3438C46.0211 9.0478 46.3251 7.9038 46.9331 6.9118C47.5571 5.9038 48.3971 5.1198 49.4531 4.5598C50.5251 3.9838 51.7491 3.6958 53.1251 3.6958C54.4851 3.6958 55.7011 3.9838 56.7731 4.5598C57.8451 5.1198 58.6851 5.8958 59.2931 6.8878C59.9011 7.8798 60.2051 9.0318 60.2051 10.3438C60.2051 11.6238 59.9011 12.7678 59.2931 13.7758C58.6851 14.7678 57.8451 15.5518 56.7731 16.1278C55.7011 16.7038 54.4851 16.9918 53.1251 16.9918ZM53.1251 13.9198C53.7491 13.9198 54.3091 13.7758 54.8051 13.4878C55.3011 13.1998 55.6931 12.7918 55.9811 12.2638C56.2691 11.7198 56.4131 11.0798 56.4131 10.3438C56.4131 9.5918 56.2691 8.9518 55.9811 8.4238C55.6931 7.8958 55.3011 7.4878 54.8051 7.1998C54.3091 6.9118 53.7491 6.7678 53.1251 6.7678C52.5011 6.7678 51.9411 6.9118 51.4451 7.1998C50.9491 7.4878 50.5491 7.8958 50.2451 8.4238C49.9571 8.9518 49.8131 9.5918 49.8131 10.3438C49.8131 11.0798 49.9571 11.7198 50.2451 12.2638C50.5491 12.7918 50.9491 13.1998 51.4451 13.4878C51.9411 13.7758 52.5011 13.9198 53.1251 13.9198ZM63.0717 16.7998V-0.000196457H66.2877L73.4397 11.8558H71.7357L78.7677 -0.000196457H81.9597L82.0077 16.7998H78.3597L78.3357 5.5918H79.0077L73.3917 15.0238H71.6397L65.9037 5.5918H66.7197V16.7998H63.0717ZM93.7496 16.7998V14.2798L93.5096 13.7278V9.2158C93.5096 8.4158 93.2616 7.7918 92.7656 7.3438C92.2856 6.8958 91.5416 6.6718 90.5336 6.6718C89.8456 6.6718 89.1656 6.7838 88.4936 7.0078C87.8376 7.2158 87.2776 7.5038 86.8136 7.8718L85.4696 5.2558C86.1736 4.7598 87.0216 4.3758 88.0136 4.1038C89.0056 3.8318 90.0136 3.6958 91.0376 3.6958C93.0056 3.6958 94.5336 4.1598 95.6216 5.0878C96.7096 6.0158 97.2536 7.4638 97.2536 9.4318V16.7998H93.7496ZM89.8136 16.9918C88.8056 16.9918 87.9416 16.8238 87.2216 16.4878C86.5016 16.1358 85.9496 15.6638 85.5656 15.0718C85.1816 14.4798 84.9896 13.8158 84.9896 13.0798C84.9896 12.3118 85.1736 11.6398 85.5416 11.0638C85.9256 10.4878 86.5256 10.0398 87.3416 9.7198C88.1576 9.3838 89.2216 9.2158 90.5336 9.2158H93.9656V11.3998H90.9416C90.0616 11.3998 89.4536 11.5438 89.1176 11.8318C88.7976 12.1198 88.6376 12.4798 88.6376 12.9118C88.6376 13.3918 88.8216 13.7758 89.1896 14.0638C89.5736 14.3358 90.0936 14.4718 90.7496 14.4718C91.3736 14.4718 91.9336 14.3278 92.4296 14.0398C92.9256 13.7358 93.2856 13.2958 93.5096 12.7198L94.0856 14.4478C93.8136 15.2798 93.3176 15.9118 92.5976 16.3438C91.8776 16.7758 90.9496 16.9918 89.8136 16.9918ZM100.742 16.7998V3.8878H104.318V7.5358L103.814 6.4798C104.198 5.5678 104.814 4.8798 105.662 4.4158C106.51 3.9358 107.542 3.6958 108.758 3.6958V7.1518C108.598 7.1358 108.454 7.1278 108.326 7.1278C108.198 7.1118 108.062 7.1038 107.918 7.1038C106.894 7.1038 106.062 7.3998 105.422 7.9918C104.798 8.5678 104.486 9.4718 104.486 10.7038V16.7998H100.742ZM117.23 16.9918C115.838 16.9918 114.598 16.7118 113.51 16.1518C112.422 15.5758 111.566 14.7838 110.942 13.7758C110.334 12.7678 110.03 11.6238 110.03 10.3438C110.03 9.0478 110.334 7.9038 110.942 6.9118C111.566 5.9038 112.422 5.1198 113.51 4.5598C114.598 3.9838 115.838 3.6958 117.23 3.6958C118.59 3.6958 119.774 3.9838 120.782 4.5598C121.79 5.1198 122.534 5.9278 123.014 6.9838L120.11 8.5438C119.774 7.9358 119.35 7.4878 118.838 7.1998C118.342 6.9118 117.798 6.7678 117.206 6.7678C116.566 6.7678 115.99 6.9118 115.478 7.1998C114.966 7.4878 114.558 7.8958 114.254 8.4238C113.966 8.9518 113.822 9.5918 113.822 10.3438C113.822 11.0958 113.966 11.7358 114.254 12.2638C114.558 12.7918 114.966 13.1998 115.478 13.4878C115.99 13.7758 116.566 13.9198 117.206 13.9198C117.798 13.9198 118.342 13.7838 118.838 13.5118C119.35 13.2238 119.774 12.7678 120.11 12.1438L123.014 13.7278C122.534 14.7678 121.79 15.5758 120.782 16.1518C119.774 16.7118 118.59 16.9918 117.23 16.9918ZM133.19 16.7998V14.2798L132.95 13.7278V9.2158C132.95 8.4158 132.702 7.7918 132.206 7.3438C131.726 6.8958 130.982 6.6718 129.974 6.6718C129.286 6.6718 128.606 6.7838 127.934 7.0078C127.278 7.2158 126.718 7.5038 126.254 7.8718L124.91 5.2558C125.614 4.7598 126.462 4.3758 127.454 4.1038C128.446 3.8318 129.454 3.6958 130.478 3.6958C132.446 3.6958 133.974 4.1598 135.062 5.0878C136.15 6.0158 136.694 7.4638 136.694 9.4318V16.7998H133.19ZM129.254 16.9918C128.246 16.9918 127.382 16.8238 126.662 16.4878C125.942 16.1358 125.39 15.6638 125.006 15.0718C124.622 14.4798 124.43 13.8158 124.43 13.0798C124.43 12.3118 124.614 11.6398 124.982 11.0638C125.366 10.4878 125.966 10.0398 126.782 9.7198C127.598 9.3838 128.662 9.2158 129.974 9.2158H133.406V11.3998H130.382C129.502 11.3998 128.894 11.5438 128.558 11.8318C128.238 12.1198 128.078 12.4798 128.078 12.9118C128.078 13.3918 128.262 13.7758 128.63 14.0638C129.014 14.3358 129.534 14.4718 130.19 14.4718C130.814 14.4718 131.374 14.3278 131.87 14.0398C132.366 13.7358 132.726 13.2958 132.95 12.7198L133.526 14.4478C133.254 15.2798 132.758 15.9118 132.038 16.3438C131.318 16.7758 130.39 16.9918 129.254 16.9918Z" fill="#252B42"/>
</svg>
