<svg width="23" height="23" viewBox="0 0 23 23" fill="none" xmlns="http://www.w3.org/2000/svg">
<path d="M20.1306 8.41964C20.0729 8.24983 19.9668 8.10061 19.8253 7.99043C19.6838 7.88024 19.5132 7.81389 19.3344 7.79959L14.1053 7.38408L11.8424 2.37506C11.7704 2.21373 11.6532 2.07671 11.5049 1.98052C11.3567 1.88434 11.1838 1.8331 11.0071 1.83301C10.8304 1.83291 10.6575 1.88395 10.5092 1.97998C10.3608 2.076 10.2435 2.2129 10.1712 2.37415L7.90842 7.38408L2.67927 7.79959C2.50358 7.8135 2.33562 7.87774 2.19548 7.98462C2.05534 8.0915 1.94896 8.23648 1.88907 8.40224C1.82917 8.56799 1.8183 8.74749 1.85774 8.91926C1.89719 9.09103 1.98529 9.2478 2.1115 9.37081L5.97581 13.1379L4.60913 19.0559C4.56763 19.235 4.58093 19.4225 4.64731 19.594C4.71368 19.7655 4.83006 19.913 4.98135 20.0175C5.13263 20.1221 5.31184 20.1787 5.49571 20.1801C5.67959 20.1815 5.85964 20.1276 6.0125 20.0254L11.0068 16.6958L16.0012 20.0254C16.1574 20.1291 16.3417 20.1825 16.5292 20.1784C16.7167 20.1743 16.8984 20.1129 17.0499 20.0024C17.2015 19.8919 17.3156 19.7377 17.3768 19.5604C17.4381 19.3832 17.4436 19.1914 17.3926 19.0109L15.715 13.1406L19.8756 9.39649C20.148 9.15067 20.248 8.76727 20.1306 8.41964Z" fill="#B3E3FF"/>
</svg>
